# xmcd
#
# Track frame offsets: 
#        150
#        7982
#        32972
#        46690
#        58625
#        71270
#        83222
#        97202
#        116077
#        128410
#        145342
#        157960
#        170035
#        183157
#
# Disc length: 2662 seconds
#
# Revision: 0
# Processed by: cddbd v1.5.2PL0 Copyright (c) Steve Scherf et al.
# Submitted via: ExactAudioCopyFreeDBPlugin 1.0
#
DISCID=b40a640e
DTITLE=Soulfamily - Safer Soul
DYEAR=1992
DGENRE=Blues
TTITLE0=Rocket 88
TTITLE1=Mustang Sally
TTITLE2=I Feel Good
TTITLE3=Soul Shake
TTITLE4=Chain of Fool
TTITLE5=Mellow Saxophone
TTITLE6=What It Is
TTITLE7=Ain't No Love in the Heart of the City
TTITLE8=I Ain't Got You
TTITLE9=Shaky Ground
TTITLE10=Let the Good Times Roll
TTITLE11=Shake
TTITLE12=Built for Comfort
TTITLE13=In the Midnight Hour
EXTD=
EXTT0=
EXTT1=
EXTT2=
EXTT3=
EXTT4=
EXTT5=
EXTT6=
EXTT7=
EXTT8=
EXTT9=
EXTT10=
EXTT11=
EXTT12=
EXTT13=
PLAYORDER=
